<svg width="113" height="28" viewBox="0 0 113 28" fill="none" xmlns="http://www.w3.org/2000/svg">
<path d="M109.849 4.90281C109.076 4.90281 108.441 4.67945 107.942 4.23274C107.461 3.76885 107.221 3.20187 107.221 2.5318C107.221 1.84455 107.461 1.27756 107.942 0.830851C108.441 0.366957 109.076 0.13501 109.849 0.13501C110.605 0.13501 111.224 0.366957 111.705 0.830851C112.203 1.27756 112.452 1.84455 112.452 2.5318C112.452 3.20187 112.203 3.76885 111.705 4.23274C111.224 4.67945 110.605 4.90281 109.849 4.90281ZM112.04 6.39758V20.7783H107.633V6.39758H112.04Z" fill="white"/>
<path d="M89.2656 13.5616C89.2656 12.084 89.5405 10.7868 90.0903 9.67006C90.6573 8.55328 91.4219 7.69422 92.384 7.09287C93.3461 6.49153 94.4199 6.19086 95.6054 6.19086C96.6191 6.19086 97.5039 6.39703 98.2599 6.80938C99.033 7.22173 99.6258 7.76294 100.038 8.43301V6.39703H104.445V20.7778H100.038V18.7418C99.6086 19.4118 99.0073 19.953 98.2341 20.3654C97.4782 20.7778 96.5933 20.9839 95.5797 20.9839C94.4113 20.9839 93.3461 20.6833 92.384 20.0819C91.4219 19.4634 90.6573 18.5957 90.0903 17.4789C89.5405 16.345 89.2656 15.0392 89.2656 13.5616ZM100.038 13.5874C100.038 12.4878 99.7289 11.6201 99.1104 10.9844C98.509 10.3487 97.7702 10.0309 96.894 10.0309C96.0178 10.0309 95.2704 10.3487 94.6519 10.9844C94.0506 11.603 93.7499 12.462 93.7499 13.5616C93.7499 14.6612 94.0506 15.5375 94.6519 16.1904C95.2704 16.8261 96.0178 17.1439 96.894 17.1439C97.7702 17.1439 98.509 16.8261 99.1104 16.1904C99.7289 15.5546 100.038 14.687 100.038 13.5874Z" fill="white"/>
<path d="M84.6929 20.9518C83.9893 20.9518 83.4109 20.73 82.9574 20.2863C82.5197 19.8256 82.3008 19.2624 82.3008 18.597C82.3008 17.9144 82.5197 17.3427 82.9574 16.882C83.4109 16.4213 83.9893 16.1909 84.6929 16.1909C85.3808 16.1909 85.9437 16.4213 86.3815 16.882C86.8349 17.3427 87.0616 17.9144 87.0616 18.597C87.0616 19.2624 86.8349 19.8256 86.3815 20.2863C85.9437 20.73 85.3808 20.9518 84.6929 20.9518Z" fill="white"/>
<path d="M64.5 13.5616C64.5 12.084 64.7749 10.7868 65.3247 9.67006C65.8917 8.55328 66.6562 7.69422 67.6184 7.09287C68.5805 6.49153 69.6543 6.19086 70.8398 6.19086C71.8535 6.19086 72.7383 6.39703 73.4943 6.80938C74.2674 7.22173 74.8602 7.76294 75.2725 8.43301V6.39703H79.6794V20.7778H75.2725V18.7418C74.843 19.4118 74.2416 19.9531 73.4685 20.3654C72.7125 20.7778 71.8277 20.9839 70.814 20.9839C69.6457 20.9839 68.5805 20.6833 67.6184 20.0819C66.6562 19.4634 65.8917 18.5957 65.3247 17.4789C64.7749 16.345 64.5 15.0392 64.5 13.5616ZM75.2725 13.5874C75.2725 12.4878 74.9633 11.6201 74.3447 10.9844C73.7434 10.3487 73.0046 10.0309 72.1284 10.0309C71.2521 10.0309 70.5048 10.3487 69.8863 10.9844C69.2849 11.603 68.9842 12.462 68.9842 13.5616C68.9842 14.6612 69.2849 15.5375 69.8863 16.1904C70.5048 16.8261 71.2521 17.1439 72.1284 17.1439C73.0046 17.1439 73.7434 16.8261 74.3447 16.1904C74.9633 15.5546 75.2725 14.687 75.2725 13.5874Z" fill="white"/>
<path d="M37.0664 6.19086C38.08 6.19086 38.9649 6.39703 39.7208 6.80938C40.494 7.22173 41.0867 7.76294 41.4991 8.43301V6.39703H45.906V20.752C45.906 22.0749 45.6397 23.269 45.1071 24.3343C44.5917 25.4167 43.7927 26.2758 42.7103 26.9115C41.6451 27.5472 40.3136 27.865 38.7157 27.865C36.5853 27.865 34.8586 27.3582 33.5357 26.3445C32.2127 25.348 31.4568 23.9907 31.2678 22.2725H35.6232C35.7606 22.8223 36.087 23.2519 36.6025 23.5611C37.1179 23.8876 37.7536 24.0508 38.5096 24.0508C39.4202 24.0508 40.1418 23.7845 40.6744 23.2519C41.2242 22.7364 41.4991 21.9031 41.4991 20.752V18.716C41.0695 19.3861 40.4768 19.9359 39.7208 20.3654C38.9649 20.7778 38.08 20.9839 37.0664 20.9839C35.8809 20.9839 34.8071 20.6833 33.8449 20.0819C32.8828 19.4634 32.1182 18.5957 31.5513 17.4789C31.0015 16.345 30.7266 15.0392 30.7266 13.5616C30.7266 12.084 31.0015 10.7868 31.5513 9.67006C32.1182 8.55328 32.8828 7.69422 33.8449 7.09287C34.8071 6.49153 35.8809 6.19086 37.0664 6.19086ZM41.4991 13.5874C41.4991 12.4878 41.1898 11.6201 40.5713 10.9844C39.97 10.3487 39.2312 10.0309 38.3549 10.0309C37.4787 10.0309 36.7313 10.3487 36.1128 10.9844C35.5115 11.603 35.2108 12.462 35.2108 13.5616C35.2108 14.6612 35.5115 15.5375 36.1128 16.1904C36.7313 16.8261 37.4787 17.1439 38.3549 17.1439C39.2312 17.1439 39.97 16.8261 40.5713 16.1904C41.1898 15.5546 41.4991 14.687 41.4991 13.5874Z" fill="white"/>
<path d="M24.9851 8.79348C25.5005 8.00314 26.1448 7.38462 26.9179 6.93791C27.6911 6.47401 28.5501 6.24207 29.4951 6.24207V10.9068H28.2838C27.1842 10.9068 26.3595 11.1473 25.8098 11.6284C25.26 12.0923 24.9851 12.917 24.9851 14.1025V20.7774H20.5781V6.3967H24.9851V8.79348Z" fill="white"/>
<path d="M63.7841 6.39795L54.7641 27.6082H50.0221L53.3208 20.289L47.4707 6.39795H52.3931L55.7176 15.3923L59.0164 6.39795H63.7841Z" fill="white"/>
<path fill-rule="evenodd" clip-rule="evenodd" d="M2.93359 10.2618V21.1206H7.71859V14.0689H10.6847C12.2891 14.0689 13.6322 13.7798 14.7142 13.2014C15.7962 12.6231 16.5983 11.8676 17.1207 10.9348C17.643 9.98342 17.9042 8.93872 17.9042 7.80075C17.9042 6.56951 17.6337 5.47817 17.0927 4.52676C16.5517 3.57534 15.7402 2.82913 14.6582 2.28813C13.5762 1.74712 12.2517 1.47662 10.6847 1.47662H9.12692V5.33826H10.321C11.235 5.33826 11.916 5.5528 12.3637 5.98187C12.8114 6.41094 13.0352 7.01723 13.0352 7.80075C13.0352 8.58427 12.8114 9.19057 12.3637 9.61964C11.916 10.0487 11.235 10.2632 10.321 10.2632H7.71859V10.2618H2.93359Z" fill="white"/>
<path d="M8.13754 4.44271C5.85192 5.1929 5.0901 5.9501 4.33426 8.22268C4.27262 8.40947 4.00688 8.40947 3.94423 8.22268C3.18942 5.95107 2.42755 5.19392 0.140956 4.44271C-0.0469855 4.38145 -0.0469855 4.11734 0.140956 4.05507C2.42657 3.30489 3.18839 2.54769 3.94423 0.275102C4.00587 0.0883122 4.27161 0.0883122 4.33426 0.275102C5.08907 2.54671 5.85094 3.30386 8.13754 4.05507C8.32548 4.11633 8.32548 4.38044 8.13754 4.44271Z" fill="#1677FF"/>
</svg>
