<svg xmlns="http://www.w3.org/2000/svg" width="154" height="28" fill="none">
  <path fill="url(#a)" d="M23.794 13.892q.001.457-.05.898c-.45 4.045-3.876 7.193-8.041 7.193h-2.514v-4.564h2.514c.479 0 .938-.095 1.372-.275a3.57 3.57 0 0 0 1.88-1.88c.18-.43.274-.888.274-1.367v-.005c0-.479-.094-.938-.274-1.372a3.6 3.6 0 0 0-.559-.907 4 4 0 0 0-.409-.41 3.47 3.47 0 0 0-2.285-.838h-7.62a2.28 2.28 0 0 1-2.28-2.28v-.01a2.273 2.273 0 0 1 2.27-2.274h7.627a8.1 8.1 0 0 1 8.09 8.09h.006ZM5.597 10.58a3.5 3.5 0 0 1-.758-1.122 3.5 3.5 0 0 1-.275-1.332v-.05a3.5 3.5 0 0 1 1.028-2.484 3.6 3.6 0 0 1 1.122-.758 3.5 3.5 0 0 1 1.372-.275h7.617a2.279 2.279 0 1 0 0-4.559H8.086C3.93-.005.499 3.138.05 7.178c0 0 0 .005.005 0q.015-.006.03-.02c-.01.01-.025.015-.035.025a8.04 8.04 0 0 0 1.277 5.337 8.1 8.1 0 0 0 4.808 3.412v-4.918a3 3 0 0 1-.329-.25 4 4 0 0 1-.21-.194zm10.11 5.597a2.28 2.28 0 0 0 2.28-2.28v-.08a2.285 2.285 0 0 0-2.284-2.204H7.378v10.37h.01c-.005 0-.01 0-.01.01v2.738a2.279 2.279 0 1 0 4.559 0v-2.738c0-.005 0-.01-.01-.01h.01v-5.806h3.771Z"/>
  <path fill="#fff" d="M39.092 8.15a1.25 1.25 0 0 0-.194-.678q-.197-.312-.504-.533a2.6 2.6 0 0 0-.728-.35 2.96 2.96 0 0 0-1.726 0q-.397.129-.689.34a1.7 1.7 0 0 0-.469.489 1.1 1.1 0 0 0-.174.588q-.001.479.394.843c.264.245.588.424.983.534l2.184.589c.53.124 1.018.309 1.482.558.459.25.863.559 1.212.918.35.36.623.763.828 1.202q.306.66.304 1.432c0 .514-.13 1.217-.394 1.746a4.1 4.1 0 0 1-1.092 1.361 5.2 5.2 0 0 1-1.656.893 6.4 6.4 0 0 1-2.06.32c-.739 0-1.402-.11-2.03-.32a5.1 5.1 0 0 1-1.647-.908 4.3 4.3 0 0 1-1.092-1.406q-.395-.815-.394-1.83h2.519q.001.44.22.807c.144.245.344.46.588.634a3.15 3.15 0 0 0 1.836.579q.516-.001.972-.145.459-.15.788-.404.33-.255.524-.599a1.436 1.436 0 0 0-.254-1.766q-.449-.45-1.187-.653l-2.3-.609a6 6 0 0 1-1.332-.534 4.8 4.8 0 0 1-1.102-.827 3.7 3.7 0 0 1-.743-1.093 3.2 3.2 0 0 1-.275-1.332c0-.479.13-1.132.384-1.626a3.95 3.95 0 0 1 1.048-1.267 5 5 0 0 1 1.551-.818 6.1 6.1 0 0 1 1.92-.294 5.6 5.6 0 0 1 1.886.304 4.8 4.8 0 0 1 1.527.853q.651.555 1.027 1.312c.25.509.38 1.067.38 1.68h-2.52zm14.795 4.61q.001.315-.035.598-.035.285-.11.599h-8.51a3.23 3.23 0 0 0 1.123 1.441q.771.561 1.781.56c.673 0 .918-.096 1.322-.285q.605-.284 1.067-.783h2.829a4.8 4.8 0 0 1-.798 1.461q-.524.652-1.203 1.103a5.7 5.7 0 0 1-1.506.698 6 6 0 0 1-1.71.25 6.2 6.2 0 0 1-2.17-.44 6 6 0 0 1-1.846-1.202 5.9 5.9 0 0 1-1.277-1.79 5.2 5.2 0 0 1-.48-2.205c0-.783.155-1.557.46-2.24a5.45 5.45 0 0 1 1.252-1.78 5.8 5.8 0 0 1 1.845-1.178 6.1 6.1 0 0 1 2.25-.424c.793 0 1.521.145 2.215.439a6 6 0 0 1 1.82 1.192 5.6 5.6 0 0 1 1.232 1.781q.45 1.031.45 2.205Zm-2.793-1.068a3.04 3.04 0 0 0-2.923-2.11 2.94 2.94 0 0 0-1.78.569q-.795.569-1.123 1.541zm3.526-4.24h2.315v1.472h.035c.134-.235.294-.454.479-.669a3.3 3.3 0 0 1 .633-.568 3.03 3.03 0 0 1 1.791-.539h.22v2.738a6 6 0 0 0-.295-.064 1.6 1.6 0 0 0-.314-.03q-.48.002-.883.174a2.6 2.6 0 0 0-.728.47 2.2 2.2 0 0 0-.514.697q-.194.407-.23.864v6.1H54.61V7.457zm12.316 10.64h-2.499l-4.135-10.64h2.704l2.683 6.929h.035l2.65-6.929h2.703l-4.135 10.64h-.005Zm4.245-12.72q-.001-.607.424-1.027.421-.422 1.028-.424c.607-.002.748.14 1.027.424.28.284.424.623.424 1.027q.001.608-.424 1.028a1.4 1.4 0 0 1-1.027.424q-.607.001-1.028-.424a1.4 1.4 0 0 1-.424-1.028m2.739 2.076v10.64h-2.574V7.447h2.574Zm9.462 4.045a3.03 3.03 0 0 0-1.122-1.387q-.77-.524-1.78-.524c-.674 0-.834.085-1.213.26a3.2 3.2 0 0 0-1.661 1.701c-.164.384-.25.793-.25 1.222s.086.838.25 1.222q.249.577.669 1.012c.279.29.613.519.992.689.38.17.783.259 1.212.259q1.01 0 1.781-.524a3 3 0 0 0 1.122-1.386h2.664a5.7 5.7 0 0 1-.678 1.8 4.9 4.9 0 0 1-1.202 1.377 5.5 5.5 0 0 1-1.661.883 6.3 6.3 0 0 1-2.02.314c-.724 0-1.567-.14-2.28-.424a5.58 5.58 0 0 1-3.098-2.978 5.55 5.55 0 0 1-.449-2.24 5.5 5.5 0 0 1 1.691-4.03 5.7 5.7 0 0 1 1.856-1.187 6.2 6.2 0 0 1 2.28-.424c.808 0 1.396.105 2.02.314q.936.315 1.656.883.716.57 1.202 1.377a5.6 5.6 0 0 1 .688 1.8h-2.663z"/>
  <path fill="#fff" d="M97.569 12.76q.001.315-.035.598-.036.285-.11.599h-8.51a3.23 3.23 0 0 0 1.122 1.441q.771.561 1.781.56c.674 0 .918-.096 1.322-.285q.605-.284 1.068-.783h2.828a4.8 4.8 0 0 1-.798 1.461 5.3 5.3 0 0 1-1.202 1.103 5.7 5.7 0 0 1-1.507.698 6 6 0 0 1-1.71.25 6.2 6.2 0 0 1-2.17-.44 6 6 0 0 1-1.846-1.202 5.9 5.9 0 0 1-1.277-1.79 5.2 5.2 0 0 1-.48-2.205c0-.783.156-1.557.46-2.24a5.5 5.5 0 0 1 1.252-1.78 5.8 5.8 0 0 1 1.846-1.178 6.1 6.1 0 0 1 2.25-.424c.792 0 1.52.145 2.214.439a6 6 0 0 1 1.82 1.192 5.6 5.6 0 0 1 1.233 1.781q.449 1.031.449 2.205m-2.794-1.068a3.04 3.04 0 0 0-2.923-2.11 2.94 2.94 0 0 0-1.78.569q-.795.569-1.123 1.541zm18.307-2.678q.001 1.009-.379 1.876a4.5 4.5 0 0 1-1.038 1.486 4.9 4.9 0 0 1-1.541.983 5 5 0 0 1-1.89.359h-3.457v4.374h-2.609V4.31h6.066c.673 0 1.306.12 1.89.36a4.9 4.9 0 0 1 1.541.982 4.5 4.5 0 0 1 1.038 1.486c.249.574.379 1.203.379 1.876m-2.664 0q0-.457-.174-.853a2.21 2.21 0 0 0-2.01-1.332h-3.457v4.375h3.457a2.21 2.21 0 0 0 2.01-1.332q.173-.396.174-.853zm14.022 3.746q-.001 1.213-.459 2.24a5.7 5.7 0 0 1-1.242 1.79 5.6 5.6 0 0 1-1.846 1.188 6.2 6.2 0 0 1-2.279.423q-1.213.001-2.27-.424a5.5 5.5 0 0 1-1.835-1.187 5.9 5.9 0 0 1-1.242-1.79 5.5 5.5 0 0 1-.459-2.24q0-1.213.459-2.24a5.5 5.5 0 0 1 1.242-1.78 5.6 5.6 0 0 1 1.835-1.178 6.1 6.1 0 0 1 2.27-.424q1.21-.001 2.279.424a5.6 5.6 0 0 1 1.846 1.177 5.8 5.8 0 0 1 1.242 1.781c.304.689.459 1.432.459 2.24m-2.684 0a3 3 0 0 0-.249-1.212 3.3 3.3 0 0 0-.668-.993 3.3 3.3 0 0 0-.993-.668 3.1 3.1 0 0 0-1.232-.25 2.9 2.9 0 0 0-1.202.25 3.16 3.16 0 0 0-1.901 2.873q.001.645.25 1.222a3.12 3.12 0 0 0 1.651 1.671 3.1 3.1 0 0 0 2.434 0q.567-.25.993-.668.42-.42.668-1.003a3.1 3.1 0 0 0 .249-1.222m3.253-7.388q-.002-.607.424-1.027a1.4 1.4 0 0 1 1.027-.424q.608-.001 1.028.424c.42.425.424.623.424 1.027q.001.608-.424 1.028a1.4 1.4 0 0 1-1.028.424q-.607.001-1.027-.424a1.38 1.38 0 0 1-.424-1.028m2.738 2.076v10.64h-2.574V7.447h2.574Zm1.103 10.644V7.452h2.369V8.98h.035c.279-.514.703-.948 1.257-1.307q.838-.532 2.05-.534c.808 0 1.172.11 1.671.33a3.8 3.8 0 0 1 1.297.927c.359.4.644.878.843 1.432a5.3 5.3 0 0 1 .304 1.83v6.43h-2.573v-6.1c0-.33-.06-.639-.185-.918a2.4 2.4 0 0 0-.504-.743 2.4 2.4 0 0 0-.743-.504 2.2 2.2 0 0 0-.903-.185c-.319 0-.638.06-.918.185a2.4 2.4 0 0 0-1.247 1.247 2.25 2.25 0 0 0-.184.918v6.1h-2.574l.005.005Zm15.692 0h-1.252a3.15 3.15 0 0 1-1.242-.25 3.4 3.4 0 0 1-1.013-.668 3.2 3.2 0 0 1-.688-.992 3 3 0 0 1-.259-1.232V9.732h-.958v-2.28h.958V5.043h2.574v2.41h1.561v2.279h-1.561v5.218q-.002.278.184.458a.6.6 0 0 0 .439.185h1.252v2.499zm6.6-7.352q-.001-.217-.13-.48a1.6 1.6 0 0 0-.359-.468 1.9 1.9 0 0 0-.569-.35 2 2 0 0 0-.763-.139c-.284 0-.459.03-.668.09q-.32.091-.559.25a1.3 1.3 0 0 0-.384.378.8.8 0 0 0-.145.48q.001.367.25.503.248.136.653.264l2.28.59c.439.109.863.243 1.257.403.399.16.743.36 1.037.609q.443.367.699.893c.169.349.259.773.259 1.277s-.125 1.037-.379 1.451a3.4 3.4 0 0 1-1.018 1.058 4.6 4.6 0 0 1-1.506.643 7.8 7.8 0 0 1-1.856.21 6 6 0 0 1-1.82-.265 4.8 4.8 0 0 1-1.472-.743 3.55 3.55 0 0 1-.982-1.137 3 3 0 0 1-.36-1.452h2.519q.001.257.175.504.173.247.459.449a2.6 2.6 0 0 0 1.476.459c.574 0 1.068-.1 1.472-.304q.607-.306.609-.873c0-.38-.095-.424-.285-.534q-.284-.166-.838-.295l-2.259-.568a7 7 0 0 1-1.188-.424 3.6 3.6 0 0 1-.982-.644 2.9 2.9 0 0 1-.669-.902 2.7 2.7 0 0 1-.249-1.178c0-.444.12-1.037.359-1.451q.358-.62.963-1.048.605-.42 1.426-.643a6.7 6.7 0 0 1 1.736-.22q.92 0 1.711.285.792.286 1.367.773c.575.487.688.703.908 1.137q.329.651.329 1.407h-2.499z"/>
  <defs>
    <linearGradient id="a" x1="0" x2="23.794" y1="13.503" y2="13.503" gradientUnits="userSpaceOnUse">
      <stop stop-color="#76FFC5"/>
      <stop offset=".5" stop-color="#39F6A3"/>
      <stop offset="1" stop-color="#33CEA8"/>
    </linearGradient>
  </defs>
</svg>
